<?xml version="1.0" encoding="UTF-8"?>
<svg version="1.1" xmlns="http://www.w3.org/2000/svg" width="260" height="260">
<path d="M0 0 C0.87173859 -0.00902847 1.74347717 -0.01805695 2.64163208 -0.02735901 C4.48582524 -0.04186487 6.3300699 -0.05074908 8.17431641 -0.05444336 C10.99079483 -0.0663344 13.80507816 -0.11550966 16.62109375 -0.16601562 C18.41405182 -0.17548071 20.20702333 -0.18271534 22 -0.1875 C23.25960037 -0.21679848 23.25960037 -0.21679848 24.54464722 -0.24668884 C28.68857067 -0.2148393 30.64940283 0.04387278 34.16210938 2.42163086 C36.58298061 6.04484015 36.85774095 8.8981473 36.796875 13.12109375 C36.80165863 13.85682617 36.80644226 14.59255859 36.81137085 15.35058594 C36.8147613 16.90041248 36.80561842 18.45031136 36.78466797 20 C36.75788252 22.36491161 36.78443667 24.72507877 36.81640625 27.08984375 C36.81310199 28.60027083 36.8066954 30.11069498 36.796875 31.62109375 C36.80699615 32.32331055 36.81711731 33.02552734 36.82754517 33.74902344 C36.73815824 37.51595401 36.20274031 39.27864226 33.90893555 42.3112793 C30.94898001 44.5074929 29.66974916 45.01151823 26.05078125 45.078125 C24.65375977 45.12163086 24.65375977 45.12163086 23.22851562 45.16601562 C22.26880859 45.17181641 21.30910156 45.17761719 20.3203125 45.18359375 C19.34126953 45.20873047 18.36222656 45.23386719 17.35351562 45.25976562 C14.94621053 45.31848038 12.54071688 45.35487355 10.1328125 45.37109375 C9.8028125 47.35109375 9.4728125 49.33109375 9.1328125 51.37109375 C9.99261719 51.3246875 10.85242188 51.27828125 11.73828125 51.23046875 C27.69316979 50.74329658 39.96687375 55.6911546 51.8203125 66.30859375 C62.189068 77.18086795 66.24483189 91.46513889 66.734375 106.125 C66.77108307 107.09490372 66.80779114 108.06480743 66.84561157 109.06410217 C67.3262361 123.1802001 67.43013191 137.305371 67.48291016 151.4284668 C67.49641204 154.7090135 67.5246297 157.98896201 67.56494141 161.26928711 C67.61433851 165.29646495 67.63902961 169.32308968 67.64613724 173.35055733 C67.65280282 174.86515009 67.66790079 176.37973262 67.69202805 177.89414787 C67.90344393 191.9147889 67.90344393 191.9147889 63.7940979 197.88087463 C58.98849437 202.19163439 54.14575296 202.80171869 47.92431641 202.71166992 C47.12364746 202.712108 46.32297852 202.71254608 45.49804688 202.71299744 C42.86823604 202.71091796 40.23907359 202.68762715 37.609375 202.6640625 C35.7794937 202.65846354 33.94960788 202.65419486 32.11972046 202.65119934 C27.31593291 202.63977416 22.51241977 202.61032706 17.70874023 202.5770874 C12.80195833 202.54633629 7.89513185 202.53268324 2.98828125 202.51757812 C-6.63032854 202.48545509 -16.24873515 202.43428694 -25.8671875 202.37109375 C-25.85719475 203.37587517 -25.85719475 203.37587517 -25.84700012 204.4009552 C-25.7807361 211.35978404 -25.73542402 218.31852356 -25.70239258 225.27758789 C-25.68728687 227.87625772 -25.66680116 230.47490198 -25.64086914 233.07348633 C-25.60456507 236.80426333 -25.58747892 240.53470388 -25.57421875 244.265625 C-25.55873489 245.43132523 -25.54325104 246.59702545 -25.52729797 247.79804993 C-25.52695808 249.41939095 -25.52695808 249.41939095 -25.52661133 251.07348633 C-25.51661858 252.50244987 -25.51661858 252.50244987 -25.50642395 253.96028137 C-25.8671875 256.37109375 -25.8671875 256.37109375 -27.13967896 258.17892456 C-30.27554861 260.34301643 -34.15855943 259.77411242 -37.83984375 259.734375 C-38.71869736 259.7348735 -39.59755096 259.73537201 -40.5030365 259.73588562 C-42.35987613 259.73354593 -44.21671897 259.72382355 -46.07348633 259.70727539 C-48.92232467 259.6836548 -51.77022908 259.68671856 -54.61914062 259.69335938 C-56.4218806 259.68778359 -58.22461663 259.68067434 -60.02734375 259.671875 C-60.88256119 259.67278641 -61.73777863 259.67369781 -62.61891174 259.67463684 C-68.6361561 259.60212515 -68.6361561 259.60212515 -70.8671875 257.37109375 C-71.10769653 255.04257202 -71.10769653 255.04257202 -71.09423828 252.09521484 C-71.09408722 250.99422455 -71.09393616 249.89323425 -71.09378052 248.75888062 C-71.07829666 246.96977768 -71.07829666 246.96977768 -71.0625 245.14453125 C-71.0596701 243.92657867 -71.05684021 242.7086261 -71.05392456 241.45376587 C-71.04270006 237.55110992 -71.01759122 233.64868072 -70.9921875 229.74609375 C-70.98216064 227.10547206 -70.97303428 224.46484678 -70.96484375 221.82421875 C-70.94275331 215.33976595 -70.90925342 208.85544605 -70.8671875 202.37109375 C-71.48215591 202.38362183 -72.09712433 202.3961499 -72.73072815 202.40905762 C-90.7755007 202.77449619 -108.82075719 203.09897823 -126.8671875 203.37109375 C-127.95390747 203.38760986 -129.04062744 203.40412598 -130.16027832 203.42114258 C-135.79608728 203.50397327 -141.43151604 203.56938536 -147.06784058 203.60327148 C-148.71723978 203.61509209 -150.36661038 203.63212758 -152.01589966 203.65454102 C-154.28292289 203.68404057 -156.54921501 203.69437605 -158.81640625 203.69921875 C-160.69332153 203.7132373 -160.69332153 203.7132373 -162.6081543 203.72753906 C-166.39667445 203.31318297 -167.99680391 202.89182222 -170.8671875 200.37109375 C-171.63477321 197.33198973 -171.52900325 194.32876936 -171.48242188 191.20898438 C-171.48797089 190.2703656 -171.4935199 189.33174683 -171.49923706 188.36468506 C-171.51107643 185.25172338 -171.48670002 182.14020447 -171.4609375 179.02734375 C-171.45922636 176.86079983 -171.45929212 174.69425384 -171.46105957 172.52770996 C-171.45940347 167.97790819 -171.44066313 163.42859739 -171.40917969 158.87890625 C-171.36969047 153.06973814 -171.36511088 147.26121913 -171.37264252 141.45194244 C-171.37572662 136.97182355 -171.36353753 132.49184828 -171.34651184 128.01176453 C-171.33951539 125.87172855 -171.3363532 123.73167627 -171.33720398 121.59162903 C-171.32497036 101.32270686 -168.38513693 84.69419809 -153.8671875 69.37109375 C-136.05116776 52.43352182 -117.85208503 50.92234429 -94.5078125 50.859375 C-92.14840777 50.84250841 -89.78901191 50.82435554 -87.42962646 50.80497742 C-81.25499242 50.75768651 -75.08039438 50.72774214 -68.90563965 50.70153809 C-62.59066663 50.67162666 -56.27581742 50.62513288 -49.9609375 50.58007812 C-37.59641921 50.49428306 -25.23187528 50.42683235 -12.8671875 50.37109375 C-12.86132126 49.77418732 -12.85545502 49.17728088 -12.84941101 48.56228638 C-12.78561833 42.36558877 -12.70123638 36.16941736 -12.60473633 29.97314453 C-12.571423 27.65876185 -12.54341128 25.34429667 -12.52075195 23.02978516 C-12.48732373 19.70830019 -12.435014 16.38757573 -12.37890625 13.06640625 C-12.37251633 12.02678741 -12.3661264 10.98716858 -12.35954285 9.91604614 C-12.32985161 8.47477859 -12.32985161 8.47477859 -12.29956055 7.00439453 C-12.28290596 5.7319841 -12.28290596 5.7319841 -12.26591492 4.43386841 C-12.06854485 3.41279495 -12.06854485 3.41279495 -11.8671875 2.37109375 C-7.94644298 -0.24273593 -4.55457657 0.02894685 0 0 Z " fill="#A80533" transform="translate(181.8671875,-0.37109375)"/>
<path d="M0 0 C11.09953267 8.5068174 19.25452235 20.22583077 22.55859375 33.9609375 C22.81671341 34.98939789 22.81671341 34.98939789 23.08004761 36.03863525 C23.71617829 39.92324732 23.69776299 43.75836151 23.68798828 47.68261719 C23.69061676 48.98340462 23.69061676 48.98340462 23.69329834 50.31047058 C23.69768888 53.16793842 23.69478974 56.02534407 23.69140625 58.8828125 C23.69207985 60.86867281 23.69305034 62.85453304 23.69430542 64.84039307 C23.69577839 68.99630521 23.69363977 73.15219583 23.68896484 77.30810547 C23.68325293 82.64721757 23.68655832 87.98627957 23.69253731 93.32538986 C23.69614106 97.42244854 23.69500545 101.51949523 23.69240952 105.61655426 C23.6917405 107.58623511 23.69256779 109.55591703 23.69488907 111.52559662 C23.69741415 114.2693727 23.69357775 117.01306605 23.68798828 119.75683594 C23.69001251 120.57760117 23.69203674 121.39836639 23.69412231 122.2440033 C23.67285938 127.84667187 23.67285938 127.84667187 22.55859375 128.9609375 C21.22019902 129.05835818 19.8767255 129.08725309 18.53479004 129.08792114 C17.66820267 129.09074097 16.8016153 129.09356079 15.9087677 129.09646606 C14.95080795 129.09444183 13.99284821 129.0924176 13.00585938 129.09033203 C12.00270187 129.09208435 10.99954437 129.09383667 9.96598816 129.09564209 C6.63225603 129.10006266 3.29857646 129.09712189 -0.03515625 129.09375 C-2.34061697 129.09442298 -4.64607761 129.09539295 -6.95153809 129.09664917 C-11.79045282 129.09812642 -16.62934912 129.09597071 -21.46826172 129.09130859 C-27.6863527 129.0856113 -33.90440053 129.08889016 -40.12248993 129.09488106 C-44.8852369 129.09848593 -49.64797355 129.09734842 -54.41072083 129.09475327 C-56.70416774 129.09408379 -58.99761557 129.09491312 -61.2910614 129.09723282 C-64.49029031 129.09975814 -67.68944828 129.09592045 -70.88867188 129.09033203 C-72.3256115 129.09336838 -72.3256115 129.09336838 -73.7915802 129.09646606 C-75.09146126 129.09223633 -75.09146126 129.09223633 -76.41760254 129.08792114 C-77.17493935 129.08754412 -77.93227615 129.08716709 -78.71256256 129.08677864 C-80.44140625 128.9609375 -80.44140625 128.9609375 -81.44140625 127.9609375 C-81.55261184 125.19412464 -81.59880456 122.45204693 -81.60253906 119.68432617 C-81.60750397 118.81588074 -81.61246887 117.9474353 -81.61758423 117.05267334 C-81.63226013 114.1614097 -81.6390207 111.27020112 -81.64453125 108.37890625 C-81.65028309 106.36884052 -81.65604082 104.3587748 -81.6618042 102.34870911 C-81.67233289 98.12089787 -81.67816171 93.89310572 -81.68164062 89.6652832 C-81.68709591 84.27323739 -81.71105198 78.88144787 -81.73961258 73.48948193 C-81.75834112 69.32934362 -81.76345021 65.1692654 -81.7649765 61.00908852 C-81.76798613 59.02336556 -81.7759569 57.03764323 -81.78916168 55.0519619 C-81.90789355 35.80605376 -79.56201028 20.7347519 -65.78515625 6.24609375 C-47.48531802 -11.59624852 -21.34160429 -14.68203256 0 0 Z " fill="#A80532" transform="translate(98.44140625,68.0390625)"/>
<path d="M0 0 C0.87173859 -0.00902847 1.74347717 -0.01805695 2.64163208 -0.02735901 C4.48582524 -0.04186487 6.3300699 -0.05074908 8.17431641 -0.05444336 C10.99079483 -0.0663344 13.80507816 -0.11550966 16.62109375 -0.16601562 C18.41405182 -0.17548071 20.20702333 -0.18271534 22 -0.1875 C23.25960037 -0.21679848 23.25960037 -0.21679848 24.54464722 -0.24668884 C28.68857067 -0.2148393 30.64940283 0.04387278 34.16210938 2.42163086 C36.58298061 6.04484015 36.85774095 8.8981473 36.796875 13.12109375 C36.80165863 13.85682617 36.80644226 14.59255859 36.81137085 15.35058594 C36.8147613 16.90041248 36.80561842 18.45031136 36.78466797 20 C36.75788252 22.36491161 36.78443667 24.72507877 36.81640625 27.08984375 C36.81310199 28.60027083 36.8066954 30.11069498 36.796875 31.62109375 C36.80699615 32.32331055 36.81711731 33.02552734 36.82754517 33.74902344 C36.73815824 37.51595401 36.20274031 39.27864226 33.90893555 42.3112793 C30.94898001 44.5074929 29.66974916 45.01151823 26.05078125 45.078125 C24.65375977 45.12163086 24.65375977 45.12163086 23.22851562 45.16601562 C22.26880859 45.17181641 21.30910156 45.17761719 20.3203125 45.18359375 C19.34126953 45.20873047 18.36222656 45.23386719 17.35351562 45.25976562 C14.94621053 45.31848038 12.54071688 45.35487355 10.1328125 45.37109375 C9.8028125 47.35109375 9.4728125 49.33109375 9.1328125 51.37109375 C9.99261719 51.3246875 10.85242188 51.27828125 11.73828125 51.23046875 C27.69316979 50.74329658 39.96687375 55.6911546 51.8203125 66.30859375 C62.189068 77.18086795 66.24483189 91.46513889 66.734375 106.125 C66.77108307 107.09490372 66.80779114 108.06480743 66.84561157 109.06410217 C67.3262361 123.1802001 67.43013191 137.305371 67.48291016 151.4284668 C67.49641204 154.7090135 67.5246297 157.98896201 67.56494141 161.26928711 C67.61433851 165.29646495 67.63902961 169.32308968 67.64613724 173.35055733 C67.65280282 174.86515009 67.66790079 176.37973262 67.69202805 177.89414787 C67.90344393 191.9147889 67.90344393 191.9147889 63.7940979 197.88087463 C58.98849437 202.19163439 54.14575296 202.80171869 47.92431641 202.71166992 C47.12364746 202.712108 46.32297852 202.71254608 45.49804688 202.71299744 C42.86823604 202.71091796 40.23907359 202.68762715 37.609375 202.6640625 C35.7794937 202.65846354 33.94960788 202.65419486 32.11972046 202.65119934 C27.31593291 202.63977416 22.51241977 202.61032706 17.70874023 202.5770874 C12.80195833 202.54633629 7.89513185 202.53268324 2.98828125 202.51757812 C-6.63032854 202.48545509 -16.24873515 202.43428694 -25.8671875 202.37109375 C-25.85719475 203.37587517 -25.85719475 203.37587517 -25.84700012 204.4009552 C-25.7807361 211.35978404 -25.73542402 218.31852356 -25.70239258 225.27758789 C-25.68728687 227.87625772 -25.66680116 230.47490198 -25.64086914 233.07348633 C-25.60456507 236.80426333 -25.58747892 240.53470388 -25.57421875 244.265625 C-25.55873489 245.43132523 -25.54325104 246.59702545 -25.52729797 247.79804993 C-25.52695808 249.41939095 -25.52695808 249.41939095 -25.52661133 251.07348633 C-25.51661858 252.50244987 -25.51661858 252.50244987 -25.50642395 253.96028137 C-25.8671875 256.37109375 -25.8671875 256.37109375 -27.13967896 258.17892456 C-30.27554861 260.34301643 -34.15855943 259.77411242 -37.83984375 259.734375 C-38.71869736 259.7348735 -39.59755096 259.73537201 -40.5030365 259.73588562 C-42.35987613 259.73354593 -44.21671897 259.72382355 -46.07348633 259.70727539 C-48.92232467 259.6836548 -51.77022908 259.68671856 -54.61914062 259.69335938 C-56.4218806 259.68778359 -58.22461663 259.68067434 -60.02734375 259.671875 C-60.88256119 259.67278641 -61.73777863 259.67369781 -62.61891174 259.67463684 C-68.6361561 259.60212515 -68.6361561 259.60212515 -70.8671875 257.37109375 C-71.10769653 255.04257202 -71.10769653 255.04257202 -71.09423828 252.09521484 C-71.09408722 250.99422455 -71.09393616 249.89323425 -71.09378052 248.75888062 C-71.07829666 246.96977768 -71.07829666 246.96977768 -71.0625 245.14453125 C-71.0596701 243.92657867 -71.05684021 242.7086261 -71.05392456 241.45376587 C-71.04270006 237.55110992 -71.01759122 233.64868072 -70.9921875 229.74609375 C-70.98216064 227.10547206 -70.97303428 224.46484678 -70.96484375 221.82421875 C-70.94275331 215.33976595 -70.90925342 208.85544605 -70.8671875 202.37109375 C-71.48215591 202.38362183 -72.09712433 202.3961499 -72.73072815 202.40905762 C-90.7755007 202.77449619 -108.82075719 203.09897823 -126.8671875 203.37109375 C-127.95390747 203.38760986 -129.04062744 203.40412598 -130.16027832 203.42114258 C-135.79608728 203.50397327 -141.43151604 203.56938536 -147.06784058 203.60327148 C-148.71723978 203.61509209 -150.36661038 203.63212758 -152.01589966 203.65454102 C-154.28292289 203.68404057 -156.54921501 203.69437605 -158.81640625 203.69921875 C-160.69332153 203.7132373 -160.69332153 203.7132373 -162.6081543 203.72753906 C-166.39667445 203.31318297 -167.99680391 202.89182222 -170.8671875 200.37109375 C-171.63477321 197.33198973 -171.52900325 194.32876936 -171.48242188 191.20898438 C-171.48797089 190.2703656 -171.4935199 189.33174683 -171.49923706 188.36468506 C-171.51107643 185.25172338 -171.48670002 182.14020447 -171.4609375 179.02734375 C-171.45922636 176.86079983 -171.45929212 174.69425384 -171.46105957 172.52770996 C-171.45940347 167.97790819 -171.44066313 163.42859739 -171.40917969 158.87890625 C-171.36969047 153.06973814 -171.36511088 147.26121913 -171.37264252 141.45194244 C-171.37572662 136.97182355 -171.36353753 132.49184828 -171.34651184 128.01176453 C-171.33951539 125.87172855 -171.3363532 123.73167627 -171.33720398 121.59162903 C-171.32497036 101.32270686 -168.38513693 84.69419809 -153.8671875 69.37109375 C-136.05116776 52.43352182 -117.85208503 50.92234429 -94.5078125 50.859375 C-92.14840777 50.84250841 -89.78901191 50.82435554 -87.42962646 50.80497742 C-81.25499242 50.75768651 -75.08039438 50.72774214 -68.90563965 50.70153809 C-62.59066663 50.67162666 -56.27581742 50.62513288 -49.9609375 50.58007812 C-37.59641921 50.49428306 -25.23187528 50.42683235 -12.8671875 50.37109375 C-12.86132126 49.77418732 -12.85545502 49.17728088 -12.84941101 48.56228638 C-12.78561833 42.36558877 -12.70123638 36.16941736 -12.60473633 29.97314453 C-12.571423 27.65876185 -12.54341128 25.34429667 -12.52075195 23.02978516 C-12.48732373 19.70830019 -12.435014 16.38757573 -12.37890625 13.06640625 C-12.37251633 12.02678741 -12.3661264 10.98716858 -12.35954285 9.91604614 C-12.32985161 8.47477859 -12.32985161 8.47477859 -12.29956055 7.00439453 C-12.28290596 5.7319841 -12.28290596 5.7319841 -12.26591492 4.43386841 C-12.06854485 3.41279495 -12.06854485 3.41279495 -11.8671875 2.37109375 C-7.94644298 -0.24273593 -4.55457657 0.02894685 0 0 Z M-86.8671875 56.37109375 C-84.32164028 58.91664097 -82.08218084 60.65057023 -79.1171875 62.62109375 C-64.51650636 72.79283097 -56.68602934 87.35078268 -53.2956562 104.69181633 C-52.65579082 108.6929881 -52.56720786 112.61522396 -52.56420898 116.66040039 C-52.55576965 117.52832214 -52.54733032 118.3962439 -52.53863525 119.29046631 C-52.51312183 122.12073388 -52.5007847 124.9508979 -52.48828125 127.78125 C-52.47208803 129.75997219 -52.45490615 131.73868651 -52.43678284 133.71739197 C-52.39132857 138.8970477 -52.3563896 144.07671413 -52.32458496 149.25646973 C-52.27246823 157.57820058 -52.2077229 165.8998171 -52.13636971 174.22140312 C-52.11349402 177.12920456 -52.09725989 180.03699111 -52.08164978 182.94483948 C-52.06825275 184.71200737 -52.0546388 186.47917363 -52.04077148 188.24633789 C-52.03815811 189.05924789 -52.03554474 189.8721579 -52.03285217 190.70970154 C-52.33917259 194.33972523 -52.33917259 194.33972523 -50.8671875 197.37109375 C-48.33062326 197.47156632 -45.82127097 197.50726154 -43.28417969 197.50048828 C-42.48871231 197.5022406 -41.69324493 197.50399292 -40.87367249 197.50579834 C-38.22044745 197.51022811 -35.56728833 197.50726943 -32.9140625 197.50390625 C-31.06007881 197.5045803 -29.20609521 197.50555116 -27.35211182 197.50680542 C-23.44453092 197.50828497 -19.53697279 197.50612452 -15.62939453 197.50146484 C-10.68224585 197.49584639 -5.73515236 197.49899384 -0.78800583 197.50503731 C3.05595288 197.50870433 6.89989919 197.50747531 10.74385834 197.50490952 C12.56303667 197.5042529 14.38221621 197.50502314 16.20139313 197.50738907 C21.30520099 197.51255714 26.40706621 197.48670495 31.5103302 197.40964508 C33.33604712 197.38280646 35.1618665 197.36247792 36.98771667 197.34719086 C39.86244111 197.31589737 42.73450425 197.24985788 45.60839844 197.17529297 C46.48857761 197.17008699 47.36875679 197.16488102 48.27560806 197.15951729 C52.68413862 197.00773852 54.58556843 196.79743839 58.16558838 194.0083313 C61.50599856 189.53021665 61.29173354 185.46368544 61.30981445 180.09863281 C61.31967125 178.83201561 61.31967125 178.83201561 61.32972717 177.53981018 C61.34946828 174.73877875 61.36113133 171.93780125 61.37109375 169.13671875 C61.37516928 168.17629417 61.3792448 167.2158696 61.38344383 166.22634125 C61.40431885 161.13217891 61.41860825 156.03804353 61.42797852 150.94384766 C61.43898039 145.71573852 61.47330344 140.48806239 61.51315022 135.26010513 C61.53948994 131.21394134 61.54768616 127.16787739 61.55125999 123.12163544 C61.55608986 121.19698956 61.56759914 119.27234705 61.58629799 117.34778595 C61.75601018 98.70505899 59.59473169 83.13261262 46.1953125 68.99609375 C37.07083032 60.41557109 26.47037897 56.30067309 13.94140625 56.3515625 C13.04091553 56.35438232 12.1404248 56.35720215 11.21264648 56.36010742 C10.52630127 56.36373291 9.83995605 56.3673584 9.1328125 56.37109375 C9.01690106 63.86407195 8.92808879 71.35695707 8.87375164 78.8506279 C8.84767028 82.33042849 8.81230206 85.80961522 8.75561523 89.2890625 C8.69083431 93.29042408 8.66662038 97.29114214 8.64453125 101.29296875 C8.61872482 102.54100281 8.5929184 103.78903687 8.56632996 105.07489014 C8.5659523 106.23579163 8.56557465 107.39669312 8.56518555 108.59277344 C8.55408249 109.61425476 8.54297943 110.63573608 8.53153992 111.68817139 C9.3491174 115.33626209 11.12085486 116.30184431 14.1328125 118.37109375 C17.97449142 123.52346312 19.58843474 128.68280418 19.46875 135.0859375 C18.67664315 140.47410619 16.29436118 145.4963248 12.16015625 149.08203125 C6.45854863 152.76942609 0.96109697 154.202049 -5.8671875 153.37109375 C-13.13481819 151.4404372 -17.02582057 147.70934918 -20.8671875 141.37109375 C-23.31256511 136.48033853 -22.61487451 129.06276699 -21.18359375 123.91015625 C-19.50197099 120.26780321 -18.37553201 118.67089188 -14.8125 116.56958008 C-12.53334861 114.6723969 -11.9257029 113.66362365 -11.33657837 110.71847534 C-11.17162762 107.26982431 -11.19333971 103.8655219 -11.28125 100.4140625 C-11.28729248 99.29858032 -11.29333496 98.18309814 -11.29956055 97.03381348 C-11.33090497 92.87502933 -11.41467393 88.7167736 -11.4921875 84.55859375 C-11.6159375 75.25671875 -11.7396875 65.95484375 -11.8671875 56.37109375 C-36.6171875 56.37109375 -61.3671875 56.37109375 -86.8671875 56.37109375 Z M-151.73046875 76.73046875 C-164.09640516 92.01268633 -165.3213319 107.46377832 -165.1953125 126.4140625 C-165.19224987 128.43475707 -165.19037759 130.45545376 -165.18963623 132.47615051 C-165.18506002 136.68446082 -165.17072811 140.89257689 -165.1484375 145.10083008 C-165.11995638 150.50589059 -165.10920307 155.91080001 -165.1047554 161.31592846 C-165.10061214 165.47560646 -165.09080713 169.63525376 -165.07888031 173.79491615 C-165.07317216 175.78971422 -165.06841526 177.78451524 -165.06461334 179.77931786 C-165.05777953 182.55109315 -165.04416634 185.32274589 -165.02832031 188.09448242 C-165.02720245 188.92295181 -165.02608459 189.7514212 -165.02493286 190.60499573 C-165.34675954 194.28999482 -165.34675954 194.28999482 -163.8671875 197.37109375 C-162.52879277 197.46851443 -161.18531925 197.49740934 -159.84338379 197.49807739 C-158.54350273 197.50230713 -158.54350273 197.50230713 -157.21736145 197.50662231 C-155.78042183 197.50358597 -155.78042183 197.50358597 -154.31445312 197.50048828 C-153.31129562 197.5022406 -152.30813812 197.50399292 -151.27458191 197.50579834 C-147.94084978 197.51021891 -144.60717021 197.50727814 -141.2734375 197.50390625 C-138.96797678 197.50457923 -136.66251614 197.5055492 -134.35705566 197.50680542 C-129.51814093 197.50828267 -124.67924463 197.50612696 -119.84033203 197.50146484 C-113.62224105 197.49576755 -107.40419322 197.49904641 -101.18610382 197.50503731 C-96.42335685 197.50864218 -91.6606202 197.50750467 -86.89787292 197.50490952 C-84.60442601 197.50424004 -82.31097818 197.50506937 -80.01753235 197.50738907 C-76.81830344 197.50991439 -73.61914547 197.5060767 -70.41992188 197.50048828 C-69.46196213 197.50251251 -68.50400238 197.50453674 -67.51701355 197.50662231 C-66.65042618 197.50380249 -65.78383881 197.50098267 -64.89099121 197.49807739 C-63.754986 197.49751185 -63.754986 197.49751185 -62.59603119 197.49693489 C-60.8363924 197.55826766 -60.8363924 197.55826766 -59.8671875 196.37109375 C-59.75601872 193.66529839 -59.70979123 190.984795 -59.70605469 188.27807617 C-59.70108978 187.42913788 -59.69612488 186.58019958 -59.69100952 185.70553589 C-59.67633372 182.8792033 -59.66957296 180.05292704 -59.6640625 177.2265625 C-59.65831052 175.26133726 -59.65255279 173.29611204 -59.64678955 171.33088684 C-59.63626081 167.19723244 -59.63043206 163.06359757 -59.62695312 158.92993164 C-59.62149872 153.65895152 -59.59754461 148.38823371 -59.56898117 143.11733532 C-59.55024866 139.04984314 -59.54514333 134.9824124 -59.54361725 130.91488075 C-59.54060836 128.97381486 -59.53264014 127.03274959 -59.51943207 125.0917263 C-59.39506349 105.38991098 -62.33084929 89.38950973 -76.55859375 74.5859375 C-88.24746826 63.3717381 -100.51454932 58.78944349 -116.66015625 59.09765625 C-130.43744396 59.72972805 -142.40502845 66.88601831 -151.73046875 76.73046875 Z " fill="#000000" transform="translate(181.8671875,-0.37109375)"/>
<path d="M0 0 C0.64604187 -0.00700928 1.29208374 -0.01401855 1.95770264 -0.02124023 C4.08755834 -0.03880645 6.21607868 -0.02720288 8.34594727 -0.01367188 C9.83041132 -0.01636756 11.31487365 -0.02025062 12.79933167 -0.02526855 C15.90887277 -0.03116195 19.01795384 -0.02260766 22.12744141 -0.00390625 C26.10676749 0.01886412 30.08501328 0.00577258 34.06429958 -0.01819611 C37.12962427 -0.03267583 40.19469443 -0.02803797 43.26002693 -0.01768494 C44.72679841 -0.01502259 46.19359324 -0.01827013 47.66033745 -0.02760315 C49.71428139 -0.03780337 51.76649678 -0.02222274 53.8203125 0 C54.98739243 0.00318237 56.15447235 0.00636475 57.35691833 0.00964355 C61.18531542 0.63331759 62.84459004 1.68640921 65.47485352 4.51757812 C66.09631348 6.90783691 66.09631348 6.90783691 66.09008789 9.58984375 C66.10404602 11.10161194 66.10404602 11.10161194 66.11828613 12.6439209 C66.10189087 13.72629028 66.08549561 14.80865967 66.06860352 15.92382812 C66.0686438 17.04067993 66.06868408 18.15753174 66.06872559 19.30822754 C66.06336617 21.66859568 66.04576575 24.02896311 66.0168457 26.38916016 C65.9750091 30.00413488 65.97577528 33.61724603 65.98266602 37.23242188 C65.9721731 39.52540359 65.95923446 41.81837568 65.94360352 44.11132812 C65.94330139 45.7348822 65.94330139 45.7348822 65.94299316 47.39123535 C65.9270813 48.39908081 65.91116943 49.40692627 65.89477539 50.4453125 C65.8863562 51.33037476 65.87793701 52.21543701 65.8692627 53.12731934 C65.37072871 56.14861117 64.75458558 57.45374314 62.47485352 59.51757812 C59.47680664 60.01878357 59.47680664 60.01878357 55.75610352 60.01928711 C55.07773438 60.02469009 54.39936523 60.03009308 53.70043945 60.03565979 C51.45813358 60.048167 49.21710682 60.03164477 46.97485352 60.01367188 C45.41691012 60.01382682 43.85896634 60.01531503 42.30102539 60.01808167 C39.0358781 60.01946654 35.7711696 60.00689346 32.50610352 59.98413086 C28.31931431 59.9557455 24.1332543 59.95848214 19.94641113 59.97122097 C16.72934737 59.97817369 13.51245237 59.97039362 10.29541016 59.95796394 C8.75163419 59.95344544 7.20784012 59.95311613 5.6640625 59.95702934 C3.50686466 59.9599377 1.35067411 59.94345455 -0.80639648 59.92163086 C-2.03422852 59.91622787 -3.26206055 59.91082489 -4.52709961 59.90525818 C-7.52514648 59.51757812 -7.52514648 59.51757812 -9.41981506 58.3079834 C-10.8946898 55.9189954 -10.9124628 54.27053995 -10.92919922 51.46704102 C-10.94188339 50.43909927 -10.95456757 49.41115753 -10.96763611 48.35206604 C-10.96470047 47.24266159 -10.96176483 46.13325714 -10.95874023 44.99023438 C-10.96398209 43.84977158 -10.96922394 42.70930878 -10.97462463 41.5342865 C-10.98105195 39.1209291 -10.97969873 36.70754041 -10.97119141 34.29418945 C-10.96268749 30.59790315 -10.99142567 26.90316454 -11.02319336 23.20703125 C-11.02480554 20.86393276 -11.02422752 18.52083152 -11.02124023 16.17773438 C-11.03247421 15.07035416 -11.04370819 13.96297394 -11.05528259 12.82203674 C-11.04590164 11.79094284 -11.03652069 10.75984894 -11.02685547 9.69750977 C-11.0266893 8.79166641 -11.02652313 7.88582306 -11.02635193 6.95252991 C-9.75809121 0.79107707 -5.66127862 0.01544761 0 0 Z " fill="#000000" transform="translate(41.525146484375,105.482421875)"/>
<path d="M0 0 C16.5 0 33 0 50 0 C46.59194453 6.81611093 40.71045926 11.30407708 35 16.22265625 C31.86211898 19.01120286 28.92589677 21.99181238 26 25 C22.1503265 23.41579763 19.71341435 20.95718753 16.796875 18.02734375 C16.3142218 17.54423233 15.8315686 17.06112091 15.33428955 16.56336975 C14.32008976 15.54615946 13.30831081 14.52653039 12.29882812 13.50463867 C10.74664214 11.93410245 9.18650796 10.37180962 7.625 8.81054688 C0 1.14751637 0 1.14751637 0 0 Z " fill="#FFFFFE" transform="translate(44,113)"/>
<path d="M0 0 C4.52134218 3.71754802 8.77415761 7.64047364 12.9375 11.75 C13.43419189 12.23380127 13.93088379 12.71760254 14.44262695 13.21606445 C15.66847329 14.43848364 16.83934827 15.71551743 18 17 C18 17.66 18 18.32 18 19 C1.5 19 -15 19 -32 19 C-30.31353217 15.62706435 -29.30850283 14.06653006 -26.7421875 11.546875 C-26.11699219 10.928125 -25.49179687 10.309375 -24.84765625 9.671875 C-24.19667969 9.03765625 -23.54570313 8.4034375 -22.875 7.75 C-22.21628906 7.1003125 -21.55757812 6.450625 -20.87890625 5.78125 C-19.25703357 4.18288273 -17.6306719 2.58938103 -16 1 C-15.24847656 1.48597656 -14.49695313 1.97195312 -13.72265625 2.47265625 C-10.19869859 4.44951055 -7.98494334 4.50717461 -4 4 C-1.55901182 2.14579161 -1.55901182 2.14579161 0 0 Z " fill="#FFFFFF" transform="translate(76,140)"/>
<path d="M0 0 C4.50789276 3.86390808 8.79767029 7.66073352 12.9375 11.875 C13.67709961 12.62136719 13.67709961 12.62136719 14.43164062 13.3828125 C15.62345992 14.58620285 16.81208678 15.79275365 18 17 C16.6489735 20.01015294 15.13664313 22.11967466 12.8125 24.453125 C11.88824219 25.38125 11.88824219 25.38125 10.9453125 26.328125 C10.30335937 26.96234375 9.66140625 27.5965625 9 28.25 C8.35804687 28.8996875 7.71609375 29.549375 7.0546875 30.21875 C6.13042969 31.13914063 6.13042969 31.13914063 5.1875 32.078125 C4.34251953 32.91972168 4.34251953 32.91972168 3.48046875 33.77832031 C2 35 2 35 0 35 C0 23.45 0 11.9 0 0 Z " fill="#FFFFFF" transform="translate(38,118)"/>
<path d="M0 0 C0 11.55 0 23.1 0 35 C-4.50789276 31.13609192 -8.79767029 27.33926648 -12.9375 23.125 C-13.43056641 22.62742188 -13.92363281 22.12984375 -14.43164062 21.6171875 C-15.62345992 20.41379715 -16.81208678 19.20724635 -18 18 C-14.2698595 13.46334263 -10.32946434 9.22058878 -6.1875 5.0625 C-5.69531982 4.56580811 -5.20313965 4.06911621 -4.69604492 3.55737305 C-1.12375366 0 -1.12375366 0 0 0 Z " fill="#FFFFFF" transform="translate(100,118)"/>
<path d="M0 0 C3.36344489 2.48602449 4.80057749 3.91425523 5.5625 8.0625 C5 11 5 11 3.4375 13.375 C0.02544071 15.64970619 -1.97611774 15.63534983 -6 15 C-9 12.9375 -9 12.9375 -11 10 C-11.06641554 6.14789873 -10.87229157 4.00151995 -8.3125 1.0625 C-5.2135552 -0.3613395 -3.37817188 -0.55153827 0 0 Z " fill="#A90533" transform="translate(183,125)"/>
</svg>
